<?xml version="1.0" encoding="UTF-8"?>
<svg baseProfile="tiny" version="1.2" viewBox="0 0 442 109" xmlns="http://www.w3.org/2000/svg">
<g fill="none" fill-rule="evenodd" stroke-linecap="square" stroke-linejoin="bevel">
<g fill="#fff">
<rect width="440" height="109"/>
</g>
<rect width="441" height="108" stroke="#eaecef" stroke-width="2"/>
<g transform="matrix(1.25,0,0,1.25,17,21)" fill="#586069">
<path d="m4 9h-1v-1h1v1m0-3h-1v1h1v-1m0-2h-1v1h1v-1m0-2h-1v1h1v-1m8-1v12c0 0.55-0.45 1-1 1h-5v2l-1.5-1.5-1.5 1.5v-2h-2c-0.55 0-1-0.45-1-1v-12c0-0.55 0.45-1 1-1h10c0.55 0 1 0.45 1 1m-1 10h-10v2h2v-1h3v1h5v-2m0-10h-9v9h9v-9" fill-rule="evenodd"/>
</g>
<g fill="#0366d6" stroke="#0366d6" stroke-linecap="square" stroke-linejoin="bevel">
<a href="https://github.com/baileywjohnson/twitterminer">
<text x="41" y="33" fill="#0366d6" font-family="sans-serif" font-size="16" font-weight="630" stroke="none" xml:space="preserve">twitterminer</text>
</a>
</g>
<g fill="#586069" stroke="#586069" stroke-linecap="square" stroke-linejoin="bevel">
<text x="17" y="65" fill="#586069" font-family="sans-serif" font-size="14" font-weight="400" stroke="none" xml:space="preserve">A Flask API for TwitterMiner with a React frontend. </text>
</g>
</g>
</svg>
